<svg xmlns="http://www.w3.org/2000/svg" xmlns:xlink="http://www.w3.org/1999/xlink" width="100" zoomAndPan="magnify" viewBox="0 0 75 37.5" height="50" preserveAspectRatio="xMidYMid meet" version="1.0"><defs><g/><clipPath id="24fffaebd3"><path d="M 27 10 L 33 10 L 33 17 L 27 17 Z M 27 10 " clip-rule="nonzero"/></clipPath><clipPath id="bc0f26f499"><path d="M 28.972656 17.777344 L 25.886719 14.691406 L 31.421875 9.152344 L 34.511719 12.242188 Z M 28.972656 17.777344 " clip-rule="nonzero"/></clipPath><clipPath id="c26b941c2e"><path d="M 25.929688 14.734375 L 29.019531 17.824219 L 34.554688 12.285156 L 31.46875 9.199219 Z M 25.929688 14.734375 " clip-rule="nonzero"/></clipPath><clipPath id="f819b60429"><path d="M 24 13 L 28 13 L 28 17 L 24 17 Z M 24 13 " clip-rule="nonzero"/></clipPath><clipPath id="e4615ddd13"><path d="M 28.363281 15.351562 L 26.660156 17.054688 L 23.464844 13.859375 L 25.167969 12.15625 Z M 28.363281 15.351562 " clip-rule="nonzero"/></clipPath><clipPath id="2ee5760bfc"><path d="M 26.644531 17.066406 L 28.351562 15.363281 L 25.15625 12.167969 L 23.453125 13.875 Z M 26.644531 17.066406 " clip-rule="nonzero"/></clipPath></defs><g fill="#ffffff" fill-opacity="1"><g transform="translate(2.306806, 23.697963)"><g><path d="M 3.703125 0.1875 C 3.035156 0.1875 2.484375 0.0820312 2.046875 -0.125 C 1.617188 -0.34375 1.300781 -0.628906 1.09375 -0.984375 C 0.882812 -1.335938 0.78125 -1.726562 0.78125 -2.15625 C 0.78125 -2.882812 1.0625 -3.472656 1.625 -3.921875 C 2.1875 -4.367188 3.035156 -4.59375 4.171875 -4.59375 L 6.140625 -4.59375 L 6.140625 -4.78125 C 6.140625 -5.3125 5.988281 -5.703125 5.6875 -5.953125 C 5.382812 -6.203125 5.007812 -6.328125 4.5625 -6.328125 C 4.15625 -6.328125 3.800781 -6.226562 3.5 -6.03125 C 3.195312 -5.84375 3.007812 -5.5625 2.9375 -5.1875 L 0.96875 -5.1875 C 1.019531 -5.75 1.207031 -6.238281 1.53125 -6.65625 C 1.863281 -7.070312 2.289062 -7.394531 2.8125 -7.625 C 3.34375 -7.851562 3.929688 -7.96875 4.578125 -7.96875 C 5.679688 -7.96875 6.550781 -7.6875 7.1875 -7.125 C 7.832031 -6.570312 8.15625 -5.789062 8.15625 -4.78125 L 8.15625 0 L 6.4375 0 L 6.25 -1.25 C 6.019531 -0.832031 5.695312 -0.488281 5.28125 -0.21875 C 4.875 0.0507812 4.347656 0.1875 3.703125 0.1875 Z M 4.15625 -1.375 C 4.726562 -1.375 5.171875 -1.5625 5.484375 -1.9375 C 5.804688 -2.3125 6.007812 -2.78125 6.09375 -3.34375 L 4.390625 -3.34375 C 3.859375 -3.34375 3.476562 -3.242188 3.25 -3.046875 C 3.019531 -2.859375 2.90625 -2.617188 2.90625 -2.328125 C 2.90625 -2.023438 3.019531 -1.789062 3.25 -1.625 C 3.476562 -1.457031 3.78125 -1.375 4.15625 -1.375 Z M 4.15625 -1.375 "/></g></g></g><g fill="#ffffff" fill-opacity="1"><g transform="translate(10.348455, 23.697963)"><g><path d="M 4.3125 -2.3125 C 3.9375 -2.3125 3.585938 -2.351562 3.265625 -2.4375 L 2.6875 -1.859375 C 2.863281 -1.765625 3.101562 -1.6875 3.40625 -1.625 C 3.707031 -1.5625 4.195312 -1.5 4.875 -1.4375 C 5.90625 -1.34375 6.65625 -1.097656 7.125 -0.703125 C 7.601562 -0.304688 7.84375 0.238281 7.84375 0.9375 C 7.84375 1.394531 7.710938 1.832031 7.453125 2.25 C 7.203125 2.664062 6.816406 3 6.296875 3.25 C 5.773438 3.507812 5.109375 3.640625 4.296875 3.640625 C 3.191406 3.640625 2.296875 3.429688 1.609375 3.015625 C 0.929688 2.597656 0.59375 1.976562 0.59375 1.15625 C 0.59375 0.457031 0.929688 -0.144531 1.609375 -0.65625 C 1.398438 -0.75 1.21875 -0.847656 1.0625 -0.953125 C 0.914062 -1.054688 0.785156 -1.164062 0.671875 -1.28125 L 0.671875 -1.640625 L 2.03125 -3.09375 C 1.425781 -3.625 1.125 -4.304688 1.125 -5.140625 C 1.125 -5.660156 1.25 -6.132812 1.5 -6.5625 C 1.757812 -6.988281 2.125 -7.328125 2.59375 -7.578125 C 3.070312 -7.835938 3.644531 -7.96875 4.3125 -7.96875 C 4.75 -7.96875 5.15625 -7.898438 5.53125 -7.765625 L 8.484375 -7.765625 L 8.484375 -6.546875 L 7.140625 -6.453125 C 7.347656 -6.054688 7.453125 -5.617188 7.453125 -5.140625 C 7.453125 -4.617188 7.328125 -4.144531 7.078125 -3.71875 C 6.828125 -3.289062 6.460938 -2.945312 5.984375 -2.6875 C 5.515625 -2.4375 4.957031 -2.3125 4.3125 -2.3125 Z M 4.3125 -3.859375 C 4.71875 -3.859375 5.050781 -3.96875 5.3125 -4.1875 C 5.582031 -4.40625 5.71875 -4.71875 5.71875 -5.125 C 5.71875 -5.53125 5.582031 -5.84375 5.3125 -6.0625 C 5.050781 -6.28125 4.71875 -6.390625 4.3125 -6.390625 C 3.882812 -6.390625 3.539062 -6.28125 3.28125 -6.0625 C 3.019531 -5.84375 2.890625 -5.53125 2.890625 -5.125 C 2.890625 -4.71875 3.019531 -4.40625 3.28125 -4.1875 C 3.539062 -3.96875 3.882812 -3.859375 4.3125 -3.859375 Z M 2.421875 0.953125 C 2.421875 1.335938 2.601562 1.625 2.96875 1.8125 C 3.332031 2.007812 3.773438 2.109375 4.296875 2.109375 C 4.796875 2.109375 5.203125 2.003906 5.515625 1.796875 C 5.828125 1.597656 5.984375 1.328125 5.984375 0.984375 C 5.984375 0.703125 5.878906 0.46875 5.671875 0.28125 C 5.472656 0.09375 5.070312 -0.0195312 4.46875 -0.0625 C 4.039062 -0.09375 3.644531 -0.140625 3.28125 -0.203125 C 2.976562 -0.0351562 2.757812 0.144531 2.625 0.34375 C 2.488281 0.539062 2.421875 0.742188 2.421875 0.953125 Z M 2.421875 0.953125 "/></g></g></g><g fill="#ffffff" fill-opacity="1"><g transform="translate(18.264698, 23.697963)"><g><path d="M 1.015625 0 L 1.015625 -7.765625 L 2.8125 -7.765625 L 3 -6.3125 C 3.28125 -6.8125 3.660156 -7.210938 4.140625 -7.515625 C 4.628906 -7.816406 5.203125 -7.96875 5.859375 -7.96875 L 5.859375 -5.84375 L 5.296875 -5.84375 C 4.859375 -5.84375 4.46875 -5.773438 4.125 -5.640625 C 3.78125 -5.503906 3.507812 -5.269531 3.3125 -4.9375 C 3.125 -4.601562 3.03125 -4.140625 3.03125 -3.546875 L 3.03125 0 Z M 1.015625 0 "/></g></g></g><g fill="#ffffff" fill-opacity="1"><g transform="translate(23.469034, 23.697963)"><g><path d="M 4.75 0.1875 C 4 0.1875 3.320312 0.015625 2.71875 -0.328125 C 2.113281 -0.671875 1.632812 -1.148438 1.28125 -1.765625 C 0.9375 -2.378906 0.765625 -3.085938 0.765625 -3.890625 C 0.765625 -4.691406 0.941406 -5.394531 1.296875 -6 C 1.648438 -6.613281 2.128906 -7.09375 2.734375 -7.4375 C 3.335938 -7.789062 4.015625 -7.96875 4.765625 -7.96875 C 5.503906 -7.96875 6.171875 -7.789062 6.765625 -7.4375 C 7.367188 -7.09375 7.847656 -6.613281 8.203125 -6 C 8.554688 -5.394531 8.734375 -4.691406 8.734375 -3.890625 C 8.734375 -3.085938 8.554688 -2.378906 8.203125 -1.765625 C 7.847656 -1.148438 7.367188 -0.671875 6.765625 -0.328125 C 6.160156 0.015625 5.488281 0.1875 4.75 0.1875 Z M 4.75 -1.546875 C 5.269531 -1.546875 5.722656 -1.742188 6.109375 -2.140625 C 6.492188 -2.535156 6.6875 -3.117188 6.6875 -3.890625 C 6.6875 -4.660156 6.492188 -5.238281 6.109375 -5.625 C 5.722656 -6.019531 5.273438 -6.21875 4.765625 -6.21875 C 4.234375 -6.21875 3.773438 -6.019531 3.390625 -5.625 C 3.015625 -5.238281 2.828125 -4.660156 2.828125 -3.890625 C 2.828125 -3.117188 3.015625 -2.535156 3.390625 -2.140625 C 3.773438 -1.742188 4.226562 -1.546875 4.75 -1.546875 Z M 4.75 -1.546875 "/></g></g></g><g fill="#ffffff" fill-opacity="1"><g transform="translate(31.96528, 23.697963)"><g><path d="M 4.234375 0.1875 C 3.546875 0.1875 2.9375 0.078125 2.40625 -0.140625 C 1.882812 -0.367188 1.46875 -0.679688 1.15625 -1.078125 C 0.84375 -1.472656 0.65625 -1.929688 0.59375 -2.453125 L 2.625 -2.453125 C 2.6875 -2.148438 2.851562 -1.890625 3.125 -1.671875 C 3.40625 -1.460938 3.765625 -1.359375 4.203125 -1.359375 C 4.640625 -1.359375 4.957031 -1.445312 5.15625 -1.625 C 5.363281 -1.800781 5.46875 -2.003906 5.46875 -2.234375 C 5.46875 -2.578125 5.320312 -2.804688 5.03125 -2.921875 C 4.738281 -3.046875 4.332031 -3.164062 3.8125 -3.28125 C 3.476562 -3.351562 3.132812 -3.441406 2.78125 -3.546875 C 2.4375 -3.648438 2.117188 -3.78125 1.828125 -3.9375 C 1.546875 -4.101562 1.316406 -4.3125 1.140625 -4.5625 C 0.960938 -4.820312 0.875 -5.140625 0.875 -5.515625 C 0.875 -6.203125 1.144531 -6.78125 1.6875 -7.25 C 2.238281 -7.726562 3.015625 -7.96875 4.015625 -7.96875 C 4.929688 -7.96875 5.660156 -7.75 6.203125 -7.3125 C 6.753906 -6.882812 7.082031 -6.296875 7.1875 -5.546875 L 5.296875 -5.546875 C 5.179688 -6.117188 4.75 -6.40625 4 -6.40625 C 3.625 -6.40625 3.332031 -6.332031 3.125 -6.1875 C 2.925781 -6.039062 2.828125 -5.859375 2.828125 -5.640625 C 2.828125 -5.410156 2.976562 -5.226562 3.28125 -5.09375 C 3.582031 -4.957031 3.984375 -4.832031 4.484375 -4.71875 C 5.023438 -4.59375 5.519531 -4.453125 5.96875 -4.296875 C 6.425781 -4.148438 6.789062 -3.925781 7.0625 -3.625 C 7.332031 -3.332031 7.46875 -2.90625 7.46875 -2.34375 C 7.476562 -1.863281 7.351562 -1.429688 7.09375 -1.046875 C 6.832031 -0.660156 6.457031 -0.359375 5.96875 -0.140625 C 5.476562 0.078125 4.898438 0.1875 4.234375 0.1875 Z M 4.234375 0.1875 "/></g></g></g><g fill="#ffffff" fill-opacity="1"><g transform="translate(39.19179, 23.697963)"><g><path d="M 4.796875 0.1875 C 4.015625 0.1875 3.316406 0.0195312 2.703125 -0.3125 C 2.097656 -0.644531 1.625 -1.113281 1.28125 -1.71875 C 0.9375 -2.332031 0.765625 -3.035156 0.765625 -3.828125 C 0.765625 -4.628906 0.929688 -5.34375 1.265625 -5.96875 C 1.609375 -6.59375 2.082031 -7.082031 2.6875 -7.4375 C 3.289062 -7.789062 4 -7.96875 4.8125 -7.96875 C 5.570312 -7.96875 6.242188 -7.796875 6.828125 -7.453125 C 7.410156 -7.117188 7.867188 -6.660156 8.203125 -6.078125 C 8.535156 -5.503906 8.703125 -4.863281 8.703125 -4.15625 C 8.703125 -4.039062 8.695312 -3.921875 8.6875 -3.796875 C 8.6875 -3.671875 8.679688 -3.539062 8.671875 -3.40625 L 2.765625 -3.40625 C 2.804688 -2.789062 3.015625 -2.3125 3.390625 -1.96875 C 3.773438 -1.625 4.238281 -1.453125 4.78125 -1.453125 C 5.1875 -1.453125 5.523438 -1.539062 5.796875 -1.71875 C 6.078125 -1.90625 6.285156 -2.144531 6.421875 -2.4375 L 8.46875 -2.4375 C 8.320312 -1.945312 8.078125 -1.5 7.734375 -1.09375 C 7.390625 -0.695312 6.96875 -0.382812 6.46875 -0.15625 C 5.976562 0.0703125 5.421875 0.1875 4.796875 0.1875 Z M 4.8125 -6.328125 C 4.320312 -6.328125 3.890625 -6.1875 3.515625 -5.90625 C 3.140625 -5.632812 2.898438 -5.21875 2.796875 -4.65625 L 6.65625 -4.65625 C 6.625 -5.164062 6.4375 -5.570312 6.09375 -5.875 C 5.75 -6.175781 5.320312 -6.328125 4.8125 -6.328125 Z M 4.8125 -6.328125 "/></g></g></g><g fill="#ffffff" fill-opacity="1"><g transform="translate(47.56263, 23.697963)"><g><path d="M 1.015625 0 L 1.015625 -7.765625 L 2.796875 -7.765625 L 2.953125 -6.453125 C 3.191406 -6.910156 3.535156 -7.273438 3.984375 -7.546875 C 4.441406 -7.828125 4.976562 -7.96875 5.59375 -7.96875 C 6.550781 -7.96875 7.296875 -7.660156 7.828125 -7.046875 C 8.367188 -6.441406 8.640625 -5.554688 8.640625 -4.390625 L 8.640625 0 L 6.625 0 L 6.625 -4.203125 C 6.625 -4.867188 6.488281 -5.378906 6.21875 -5.734375 C 5.945312 -6.085938 5.523438 -6.265625 4.953125 -6.265625 C 4.390625 -6.265625 3.925781 -6.066406 3.5625 -5.671875 C 3.207031 -5.273438 3.03125 -4.722656 3.03125 -4.015625 L 3.03125 0 Z M 1.015625 0 "/></g></g></g><g fill="#ffffff" fill-opacity="1"><g transform="translate(56.090228, 23.697963)"><g><path d="M 4.234375 0.1875 C 3.546875 0.1875 2.9375 0.078125 2.40625 -0.140625 C 1.882812 -0.367188 1.46875 -0.679688 1.15625 -1.078125 C 0.84375 -1.472656 0.65625 -1.929688 0.59375 -2.453125 L 2.625 -2.453125 C 2.6875 -2.148438 2.851562 -1.890625 3.125 -1.671875 C 3.40625 -1.460938 3.765625 -1.359375 4.203125 -1.359375 C 4.640625 -1.359375 4.957031 -1.445312 5.15625 -1.625 C 5.363281 -1.800781 5.46875 -2.003906 5.46875 -2.234375 C 5.46875 -2.578125 5.320312 -2.804688 5.03125 -2.921875 C 4.738281 -3.046875 4.332031 -3.164062 3.8125 -3.28125 C 3.476562 -3.351562 3.132812 -3.441406 2.78125 -3.546875 C 2.4375 -3.648438 2.117188 -3.78125 1.828125 -3.9375 C 1.546875 -4.101562 1.316406 -4.3125 1.140625 -4.5625 C 0.960938 -4.820312 0.875 -5.140625 0.875 -5.515625 C 0.875 -6.203125 1.144531 -6.78125 1.6875 -7.25 C 2.238281 -7.726562 3.015625 -7.96875 4.015625 -7.96875 C 4.929688 -7.96875 5.660156 -7.75 6.203125 -7.3125 C 6.753906 -6.882812 7.082031 -6.296875 7.1875 -5.546875 L 5.296875 -5.546875 C 5.179688 -6.117188 4.75 -6.40625 4 -6.40625 C 3.625 -6.40625 3.332031 -6.332031 3.125 -6.1875 C 2.925781 -6.039062 2.828125 -5.859375 2.828125 -5.640625 C 2.828125 -5.410156 2.976562 -5.226562 3.28125 -5.09375 C 3.582031 -4.957031 3.984375 -4.832031 4.484375 -4.71875 C 5.023438 -4.59375 5.519531 -4.453125 5.96875 -4.296875 C 6.425781 -4.148438 6.789062 -3.925781 7.0625 -3.625 C 7.332031 -3.332031 7.46875 -2.90625 7.46875 -2.34375 C 7.476562 -1.863281 7.351562 -1.429688 7.09375 -1.046875 C 6.832031 -0.660156 6.457031 -0.359375 5.96875 -0.140625 C 5.476562 0.078125 4.898438 0.1875 4.234375 0.1875 Z M 4.234375 0.1875 "/></g></g></g><g fill="#ffffff" fill-opacity="1"><g transform="translate(63.316736, 23.697963)"><g><path d="M 4.796875 0.1875 C 4.015625 0.1875 3.316406 0.0195312 2.703125 -0.3125 C 2.097656 -0.644531 1.625 -1.113281 1.28125 -1.71875 C 0.9375 -2.332031 0.765625 -3.035156 0.765625 -3.828125 C 0.765625 -4.628906 0.929688 -5.34375 1.265625 -5.96875 C 1.609375 -6.59375 2.082031 -7.082031 2.6875 -7.4375 C 3.289062 -7.789062 4 -7.96875 4.8125 -7.96875 C 5.570312 -7.96875 6.242188 -7.796875 6.828125 -7.453125 C 7.410156 -7.117188 7.867188 -6.660156 8.203125 -6.078125 C 8.535156 -5.503906 8.703125 -4.863281 8.703125 -4.15625 C 8.703125 -4.039062 8.695312 -3.921875 8.6875 -3.796875 C 8.6875 -3.671875 8.679688 -3.539062 8.671875 -3.40625 L 2.765625 -3.40625 C 2.804688 -2.789062 3.015625 -2.3125 3.390625 -1.96875 C 3.773438 -1.625 4.238281 -1.453125 4.78125 -1.453125 C 5.1875 -1.453125 5.523438 -1.539062 5.796875 -1.71875 C 6.078125 -1.90625 6.285156 -2.144531 6.421875 -2.4375 L 8.46875 -2.4375 C 8.320312 -1.945312 8.078125 -1.5 7.734375 -1.09375 C 7.390625 -0.695312 6.96875 -0.382812 6.46875 -0.15625 C 5.976562 0.0703125 5.421875 0.1875 4.796875 0.1875 Z M 4.8125 -6.328125 C 4.320312 -6.328125 3.890625 -6.1875 3.515625 -5.90625 C 3.140625 -5.632812 2.898438 -5.21875 2.796875 -4.65625 L 6.65625 -4.65625 C 6.625 -5.164062 6.4375 -5.570312 6.09375 -5.875 C 5.75 -6.175781 5.320312 -6.328125 4.8125 -6.328125 Z M 4.8125 -6.328125 "/></g></g></g><g clip-path="url(#24fffaebd3)"><g clip-path="url(#bc0f26f499)"><g clip-path="url(#c26b941c2e)"><path fill="#149d80" d="M 31.527344 14.75 C 32.917969 13.359375 32.777344 10.960938 32.777344 10.960938 C 32.777344 10.960938 30.347656 10.789062 28.957031 12.179688 C 27.5625 13.574219 27.734375 16.003906 27.734375 16.003906 C 27.734375 16.003906 30.132812 16.144531 31.527344 14.75 " fill-opacity="1" fill-rule="nonzero"/></g></g></g><g clip-path="url(#f819b60429)"><g clip-path="url(#e4615ddd13)"><g clip-path="url(#2ee5760bfc)"><path fill="#149d80" d="M 26.65625 13.910156 C 25.871094 13.125 24.515625 13.203125 24.515625 13.203125 C 24.515625 13.203125 24.417969 14.574219 25.207031 15.359375 C 25.992188 16.144531 27.363281 16.050781 27.363281 16.050781 C 27.363281 16.050781 27.441406 14.695312 26.65625 13.910156 " fill-opacity="1" fill-rule="nonzero"/></g></g></g></svg>