<svg xmlns="http://www.w3.org/2000/svg" xmlns:xlink="http://www.w3.org/1999/xlink" width="500" zoomAndPan="magnify" viewBox="0 0 375 374.999991" height="500" preserveAspectRatio="xMidYMid meet" version="1.0"><defs><g/><clipPath id="74c04e1285"><path d="M 137 9 L 164 9 L 164 35 L 137 35 Z M 137 9 " clip-rule="nonzero"/></clipPath><clipPath id="2f781829a8"><path d="M 144.300781 43.6875 L 128.660156 28.046875 L 156.710938 -0.0078125 L 172.355469 15.636719 Z M 144.300781 43.6875 " clip-rule="nonzero"/></clipPath><clipPath id="9cad845a76"><path d="M 128.886719 28.273438 L 144.53125 43.917969 L 172.582031 15.867188 L 156.9375 0.222656 Z M 128.886719 28.273438 " clip-rule="nonzero"/></clipPath><clipPath id="80bf515254"><path d="M 121 20 L 137 20 L 137 35 L 121 35 Z M 121 20 " clip-rule="nonzero"/></clipPath><clipPath id="280496e4dd"><path d="M 141.207031 31.390625 L 132.574219 40.023438 L 116.390625 23.839844 L 125.023438 15.210938 Z M 141.207031 31.390625 " clip-rule="nonzero"/></clipPath><clipPath id="133eafc619"><path d="M 132.507812 40.089844 L 141.140625 31.460938 L 124.957031 15.277344 L 116.324219 23.90625 Z M 132.507812 40.089844 " clip-rule="nonzero"/></clipPath></defs><g fill="#ffffff" fill-opacity="1"><g transform="translate(9.187821, 73.686628)"><g><path d="M 18.75 0.953125 C 15.351562 0.953125 12.566406 0.410156 10.390625 -0.671875 C 8.222656 -1.753906 6.609375 -3.195312 5.546875 -5 C 4.492188 -6.800781 3.96875 -8.785156 3.96875 -10.953125 C 3.96875 -14.609375 5.394531 -17.570312 8.25 -19.84375 C 11.113281 -22.125 15.40625 -23.265625 21.125 -23.265625 L 31.140625 -23.265625 L 31.140625 -24.21875 C 31.140625 -26.925781 30.367188 -28.914062 28.828125 -30.1875 C 27.296875 -31.457031 25.390625 -32.09375 23.109375 -32.09375 C 21.046875 -32.09375 19.242188 -31.597656 17.703125 -30.609375 C 16.171875 -29.628906 15.222656 -28.1875 14.859375 -26.28125 L 4.921875 -26.28125 C 5.191406 -29.144531 6.160156 -31.632812 7.828125 -33.75 C 9.492188 -35.875 11.648438 -37.503906 14.296875 -38.640625 C 16.941406 -39.773438 19.90625 -40.34375 23.1875 -40.34375 C 28.800781 -40.34375 33.222656 -38.9375 36.453125 -36.125 C 39.679688 -33.320312 41.296875 -29.351562 41.296875 -24.21875 L 41.296875 0 L 32.640625 0 L 31.6875 -6.359375 C 30.519531 -4.234375 28.890625 -2.484375 26.796875 -1.109375 C 24.710938 0.265625 22.03125 0.953125 18.75 0.953125 Z M 21.046875 -6.984375 C 23.960938 -6.984375 26.226562 -7.9375 27.84375 -9.84375 C 29.457031 -11.75 30.472656 -14.109375 30.890625 -16.921875 L 22.234375 -16.921875 C 19.535156 -16.921875 17.601562 -16.429688 16.4375 -15.453125 C 15.269531 -14.472656 14.6875 -13.265625 14.6875 -11.828125 C 14.6875 -10.296875 15.269531 -9.101562 16.4375 -8.25 C 17.601562 -7.40625 19.140625 -6.984375 21.046875 -6.984375 Z M 21.046875 -6.984375 "/></g></g></g><g fill="#ffffff" fill-opacity="1"><g transform="translate(49.932173, 73.686628)"><g><path d="M 21.84375 -11.75 C 19.9375 -11.75 18.160156 -11.960938 16.515625 -12.390625 L 13.578125 -9.453125 C 14.484375 -8.972656 15.703125 -8.570312 17.234375 -8.25 C 18.765625 -7.9375 21.253906 -7.625 24.703125 -7.3125 C 29.941406 -6.832031 33.75 -5.585938 36.125 -3.578125 C 38.507812 -1.566406 39.703125 1.210938 39.703125 4.765625 C 39.703125 7.097656 39.066406 9.304688 37.796875 11.390625 C 36.535156 13.484375 34.578125 15.175781 31.921875 16.46875 C 29.273438 17.769531 25.890625 18.421875 21.765625 18.421875 C 16.148438 18.421875 11.617188 17.375 8.171875 15.28125 C 4.734375 13.195312 3.015625 10.0625 3.015625 5.875 C 3.015625 2.332031 4.738281 -0.734375 8.1875 -3.328125 C 7.125 -3.804688 6.207031 -4.3125 5.4375 -4.84375 C 4.664062 -5.375 3.992188 -5.929688 3.421875 -6.515625 L 3.421875 -8.34375 L 10.328125 -15.640625 C 7.253906 -18.347656 5.71875 -21.816406 5.71875 -26.046875 C 5.71875 -28.691406 6.363281 -31.097656 7.65625 -33.265625 C 8.957031 -35.441406 10.800781 -37.164062 13.1875 -38.4375 C 15.570312 -39.707031 18.457031 -40.34375 21.84375 -40.34375 C 24.0625 -40.34375 26.125 -40.023438 28.03125 -39.390625 L 42.96875 -39.390625 L 42.96875 -33.203125 L 36.21875 -32.71875 C 37.28125 -30.707031 37.8125 -28.484375 37.8125 -26.046875 C 37.8125 -23.398438 37.175781 -20.988281 35.90625 -18.8125 C 34.632812 -16.644531 32.789062 -14.925781 30.375 -13.65625 C 27.96875 -12.382812 25.125 -11.75 21.84375 -11.75 Z M 21.84375 -19.53125 C 23.90625 -19.53125 25.609375 -20.085938 26.953125 -21.203125 C 28.304688 -22.316406 28.984375 -23.90625 28.984375 -25.96875 C 28.984375 -28.03125 28.304688 -29.617188 26.953125 -30.734375 C 25.609375 -31.847656 23.90625 -32.40625 21.84375 -32.40625 C 19.664062 -32.40625 17.914062 -31.847656 16.59375 -30.734375 C 15.269531 -29.617188 14.609375 -28.03125 14.609375 -25.96875 C 14.609375 -23.90625 15.269531 -22.316406 16.59375 -21.203125 C 17.914062 -20.085938 19.664062 -19.53125 21.84375 -19.53125 Z M 12.3125 4.84375 C 12.3125 6.800781 13.222656 8.269531 15.046875 9.25 C 16.878906 10.226562 19.117188 10.71875 21.765625 10.71875 C 24.304688 10.71875 26.367188 10.203125 27.953125 9.171875 C 29.546875 8.140625 30.34375 6.75 30.34375 5 C 30.34375 3.570312 29.820312 2.378906 28.78125 1.421875 C 27.75 0.472656 25.703125 -0.101562 22.640625 -0.3125 C 20.460938 -0.476562 18.445312 -0.71875 16.59375 -1.03125 C 15.0625 -0.1875 13.960938 0.734375 13.296875 1.734375 C 12.640625 2.742188 12.3125 3.78125 12.3125 4.84375 Z M 12.3125 4.84375 "/></g></g></g><g fill="#ffffff" fill-opacity="1"><g transform="translate(90.041137, 73.686628)"><g><path d="M 5.15625 0 L 5.15625 -39.390625 L 14.21875 -39.390625 L 15.171875 -32 C 16.597656 -34.539062 18.539062 -36.566406 21 -38.078125 C 23.46875 -39.585938 26.367188 -40.34375 29.703125 -40.34375 L 29.703125 -29.625 L 26.84375 -29.625 C 24.625 -29.625 22.640625 -29.28125 20.890625 -28.59375 C 19.140625 -27.90625 17.773438 -26.710938 16.796875 -25.015625 C 15.816406 -23.316406 15.328125 -20.960938 15.328125 -17.953125 L 15.328125 0 Z M 5.15625 0 "/></g></g></g><g fill="#ffffff" fill-opacity="1"><g transform="translate(116.40977, 73.686628)"><g><path d="M 24.0625 0.953125 C 20.25 0.953125 16.820312 0.0820312 13.78125 -1.65625 C 10.738281 -3.40625 8.328125 -5.828125 6.546875 -8.921875 C 4.773438 -12.023438 3.890625 -15.617188 3.890625 -19.703125 C 3.890625 -23.773438 4.789062 -27.359375 6.59375 -30.453125 C 8.394531 -33.554688 10.816406 -35.976562 13.859375 -37.71875 C 16.898438 -39.46875 20.328125 -40.34375 24.140625 -40.34375 C 27.898438 -40.34375 31.300781 -39.46875 34.34375 -37.71875 C 37.394531 -35.976562 39.804688 -33.554688 41.578125 -30.453125 C 43.347656 -27.359375 44.234375 -23.773438 44.234375 -19.703125 C 44.234375 -15.617188 43.347656 -12.023438 41.578125 -8.921875 C 39.804688 -5.828125 37.382812 -3.40625 34.3125 -1.65625 C 31.238281 0.0820312 27.820312 0.953125 24.0625 0.953125 Z M 24.0625 -7.859375 C 26.707031 -7.859375 29.007812 -8.847656 30.96875 -10.828125 C 32.925781 -12.816406 33.90625 -15.773438 33.90625 -19.703125 C 33.90625 -23.617188 32.925781 -26.566406 30.96875 -28.546875 C 29.007812 -30.535156 26.734375 -31.53125 24.140625 -31.53125 C 21.441406 -31.53125 19.125 -30.535156 17.1875 -28.546875 C 15.257812 -26.566406 14.296875 -23.617188 14.296875 -19.703125 C 14.296875 -15.773438 15.257812 -12.816406 17.1875 -10.828125 C 19.125 -8.847656 21.414062 -7.859375 24.0625 -7.859375 Z M 24.0625 -7.859375 "/></g></g></g><g fill="#ffffff" fill-opacity="1"><g transform="translate(159.457413, 73.686628)"><g><path d="M 21.4375 0.953125 C 17.945312 0.953125 14.878906 0.382812 12.234375 -0.75 C 9.585938 -1.894531 7.46875 -3.472656 5.875 -5.484375 C 4.289062 -7.492188 3.335938 -9.820312 3.015625 -12.46875 L 13.265625 -12.46875 C 13.578125 -10.9375 14.4375 -9.625 15.84375 -8.53125 C 17.25 -7.445312 19.0625 -6.90625 21.28125 -6.90625 C 23.507812 -6.90625 25.140625 -7.351562 26.171875 -8.25 C 27.203125 -9.15625 27.71875 -10.191406 27.71875 -11.359375 C 27.71875 -13.054688 26.972656 -14.207031 25.484375 -14.8125 C 24.003906 -15.414062 21.941406 -16.007812 19.296875 -16.59375 C 17.609375 -16.96875 15.890625 -17.421875 14.140625 -17.953125 C 12.390625 -18.484375 10.785156 -19.15625 9.328125 -19.96875 C 7.867188 -20.789062 6.691406 -21.847656 5.796875 -23.140625 C 4.898438 -24.441406 4.453125 -26.046875 4.453125 -27.953125 C 4.453125 -31.453125 5.835938 -34.390625 8.609375 -36.765625 C 11.390625 -39.148438 15.296875 -40.34375 20.328125 -40.34375 C 24.992188 -40.34375 28.710938 -39.253906 31.484375 -37.078125 C 34.265625 -34.910156 35.921875 -31.921875 36.453125 -28.109375 L 26.84375 -28.109375 C 26.257812 -31.023438 24.0625 -32.484375 20.25 -32.484375 C 18.34375 -32.484375 16.875 -32.113281 15.84375 -31.375 C 14.8125 -30.632812 14.296875 -29.707031 14.296875 -28.59375 C 14.296875 -27.425781 15.0625 -26.5 16.59375 -25.8125 C 18.132812 -25.125 20.175781 -24.488281 22.71875 -23.90625 C 25.46875 -23.269531 27.992188 -22.566406 30.296875 -21.796875 C 32.597656 -21.035156 34.4375 -19.898438 35.8125 -18.390625 C 37.195312 -16.878906 37.890625 -14.71875 37.890625 -11.90625 C 37.941406 -9.476562 37.304688 -7.28125 35.984375 -5.3125 C 34.660156 -3.351562 32.753906 -1.816406 30.265625 -0.703125 C 27.773438 0.398438 24.832031 0.953125 21.4375 0.953125 Z M 21.4375 0.953125 "/></g></g></g><g fill="#ffffff" fill-opacity="1"><g transform="translate(196.071729, 73.686628)"><g><path d="M 24.296875 0.953125 C 20.328125 0.953125 16.804688 0.109375 13.734375 -1.578125 C 10.671875 -3.273438 8.265625 -5.660156 6.515625 -8.734375 C 4.765625 -11.804688 3.890625 -15.351562 3.890625 -19.375 C 3.890625 -23.457031 4.75 -27.085938 6.46875 -30.265625 C 8.1875 -33.441406 10.566406 -35.914062 13.609375 -37.6875 C 16.660156 -39.457031 20.25 -40.34375 24.375 -40.34375 C 28.25 -40.34375 31.664062 -39.492188 34.625 -37.796875 C 37.59375 -36.109375 39.910156 -33.796875 41.578125 -30.859375 C 43.242188 -27.921875 44.078125 -24.648438 44.078125 -21.046875 C 44.078125 -20.460938 44.0625 -19.851562 44.03125 -19.21875 C 44.007812 -18.582031 43.972656 -17.921875 43.921875 -17.234375 L 13.984375 -17.234375 C 14.191406 -14.160156 15.257812 -11.75 17.1875 -10 C 19.125 -8.257812 21.46875 -7.390625 24.21875 -7.390625 C 26.289062 -7.390625 28.023438 -7.851562 29.421875 -8.78125 C 30.828125 -9.707031 31.875 -10.910156 32.5625 -12.390625 L 42.890625 -12.390625 C 42.148438 -9.898438 40.914062 -7.632812 39.1875 -5.59375 C 37.46875 -3.5625 35.347656 -1.960938 32.828125 -0.796875 C 30.316406 0.367188 27.472656 0.953125 24.296875 0.953125 Z M 24.375 -32.09375 C 21.894531 -32.09375 19.703125 -31.390625 17.796875 -29.984375 C 15.890625 -28.578125 14.671875 -26.445312 14.140625 -23.59375 L 33.75 -23.59375 C 33.59375 -26.1875 32.640625 -28.25 30.890625 -29.78125 C 29.148438 -31.320312 26.976562 -32.09375 24.375 -32.09375 Z M 24.375 -32.09375 "/></g></g></g><g fill="#ffffff" fill-opacity="1"><g transform="translate(238.483985, 73.686628)"><g><path d="M 5.15625 0 L 5.15625 -39.390625 L 14.140625 -39.390625 L 14.9375 -32.71875 C 16.15625 -35.050781 17.914062 -36.90625 20.21875 -38.28125 C 22.519531 -39.65625 25.234375 -40.34375 28.359375 -40.34375 C 33.222656 -40.34375 37.003906 -38.804688 39.703125 -35.734375 C 42.410156 -32.671875 43.765625 -28.171875 43.765625 -22.234375 L 43.765625 0 L 33.59375 0 L 33.59375 -21.28125 C 33.59375 -24.675781 32.90625 -27.269531 31.53125 -29.0625 C 30.15625 -30.863281 28.007812 -31.765625 25.09375 -31.765625 C 22.238281 -31.765625 19.894531 -30.757812 18.0625 -28.75 C 16.238281 -26.738281 15.328125 -23.929688 15.328125 -20.328125 L 15.328125 0 Z M 5.15625 0 "/></g></g></g><g fill="#ffffff" fill-opacity="1"><g transform="translate(281.690478, 73.686628)"><g><path d="M 21.4375 0.953125 C 17.945312 0.953125 14.878906 0.382812 12.234375 -0.75 C 9.585938 -1.894531 7.46875 -3.472656 5.875 -5.484375 C 4.289062 -7.492188 3.335938 -9.820312 3.015625 -12.46875 L 13.265625 -12.46875 C 13.578125 -10.9375 14.4375 -9.625 15.84375 -8.53125 C 17.25 -7.445312 19.0625 -6.90625 21.28125 -6.90625 C 23.507812 -6.90625 25.140625 -7.351562 26.171875 -8.25 C 27.203125 -9.15625 27.71875 -10.191406 27.71875 -11.359375 C 27.71875 -13.054688 26.972656 -14.207031 25.484375 -14.8125 C 24.003906 -15.414062 21.941406 -16.007812 19.296875 -16.59375 C 17.609375 -16.96875 15.890625 -17.421875 14.140625 -17.953125 C 12.390625 -18.484375 10.785156 -19.15625 9.328125 -19.96875 C 7.867188 -20.789062 6.691406 -21.847656 5.796875 -23.140625 C 4.898438 -24.441406 4.453125 -26.046875 4.453125 -27.953125 C 4.453125 -31.453125 5.835938 -34.390625 8.609375 -36.765625 C 11.390625 -39.148438 15.296875 -40.34375 20.328125 -40.34375 C 24.992188 -40.34375 28.710938 -39.253906 31.484375 -37.078125 C 34.265625 -34.910156 35.921875 -31.921875 36.453125 -28.109375 L 26.84375 -28.109375 C 26.257812 -31.023438 24.0625 -32.484375 20.25 -32.484375 C 18.34375 -32.484375 16.875 -32.113281 15.84375 -31.375 C 14.8125 -30.632812 14.296875 -29.707031 14.296875 -28.59375 C 14.296875 -27.425781 15.0625 -26.5 16.59375 -25.8125 C 18.132812 -25.125 20.175781 -24.488281 22.71875 -23.90625 C 25.46875 -23.269531 27.992188 -22.566406 30.296875 -21.796875 C 32.597656 -21.035156 34.4375 -19.898438 35.8125 -18.390625 C 37.195312 -16.878906 37.890625 -14.71875 37.890625 -11.90625 C 37.941406 -9.476562 37.304688 -7.28125 35.984375 -5.3125 C 34.660156 -3.351562 32.753906 -1.816406 30.265625 -0.703125 C 27.773438 0.398438 24.832031 0.953125 21.4375 0.953125 Z M 21.4375 0.953125 "/></g></g></g><g fill="#ffffff" fill-opacity="1"><g transform="translate(318.304783, 73.686628)"><g><path d="M 24.296875 0.953125 C 20.328125 0.953125 16.804688 0.109375 13.734375 -1.578125 C 10.671875 -3.273438 8.265625 -5.660156 6.515625 -8.734375 C 4.765625 -11.804688 3.890625 -15.351562 3.890625 -19.375 C 3.890625 -23.457031 4.75 -27.085938 6.46875 -30.265625 C 8.1875 -33.441406 10.566406 -35.914062 13.609375 -37.6875 C 16.660156 -39.457031 20.25 -40.34375 24.375 -40.34375 C 28.25 -40.34375 31.664062 -39.492188 34.625 -37.796875 C 37.59375 -36.109375 39.910156 -33.796875 41.578125 -30.859375 C 43.242188 -27.921875 44.078125 -24.648438 44.078125 -21.046875 C 44.078125 -20.460938 44.0625 -19.851562 44.03125 -19.21875 C 44.007812 -18.582031 43.972656 -17.921875 43.921875 -17.234375 L 13.984375 -17.234375 C 14.191406 -14.160156 15.257812 -11.75 17.1875 -10 C 19.125 -8.257812 21.46875 -7.390625 24.21875 -7.390625 C 26.289062 -7.390625 28.023438 -7.851562 29.421875 -8.78125 C 30.828125 -9.707031 31.875 -10.910156 32.5625 -12.390625 L 42.890625 -12.390625 C 42.148438 -9.898438 40.914062 -7.632812 39.1875 -5.59375 C 37.46875 -3.5625 35.347656 -1.960938 32.828125 -0.796875 C 30.316406 0.367188 27.472656 0.953125 24.296875 0.953125 Z M 24.375 -32.09375 C 21.894531 -32.09375 19.703125 -31.390625 17.796875 -29.984375 C 15.890625 -28.578125 14.671875 -26.445312 14.140625 -23.59375 L 33.75 -23.59375 C 33.59375 -26.1875 32.640625 -28.25 30.890625 -29.78125 C 29.148438 -31.320312 26.976562 -32.09375 24.375 -32.09375 Z M 24.375 -32.09375 "/></g></g></g><g clip-path="url(#74c04e1285)"><g clip-path="url(#2f781829a8)"><g clip-path="url(#9cad845a76)"><path fill="#149d80" d="M 157.234375 28.359375 C 164.289062 21.300781 163.574219 9.144531 163.574219 9.144531 C 163.574219 9.144531 151.269531 8.28125 144.210938 15.335938 C 137.15625 22.394531 138.019531 34.699219 138.019531 34.699219 C 138.019531 34.699219 150.175781 35.414062 157.234375 28.359375 " fill-opacity="1" fill-rule="nonzero"/></g></g></g><g clip-path="url(#80bf515254)"><g clip-path="url(#280496e4dd)"><g clip-path="url(#133eafc619)"><path fill="#149d80" d="M 132.554688 24.09375 C 128.570312 20.113281 121.714844 20.515625 121.714844 20.515625 C 121.714844 20.515625 121.226562 27.460938 125.207031 31.441406 C 129.1875 35.421875 136.132812 34.933594 136.132812 34.933594 C 136.132812 34.933594 136.535156 28.078125 132.554688 24.09375 " fill-opacity="1" fill-rule="nonzero"/></g></g></g></svg>